<svg xmlns="http://www.w3.org/2000/svg" viewBox="0 0 800 800">
  <defs>
    <linearGradient id="bg" x1="0" y1="0" x2="0" y2="1"><stop offset="0" stop-color="#F7EFDF"/><stop offset="1" stop-color="#EFE3CC"/></linearGradient>
    <radialGradient id="rose" cx=".4" cy=".3" r=".8"><stop offset="0" stop-color="#F0CBC0"/><stop offset=".6" stop-color="#D99AA0"/><stop offset="1" stop-color="#B4694E"/></radialGradient>
  </defs>
  <rect width="800" height="800" fill="url(#bg)"/>
  <circle cx="400" cy="400" r="255" fill="none" stroke="#C9962E" stroke-width="1.5" opacity=".35"/>
  <circle cx="400" cy="400" r="285" fill="none" stroke="#C9962E" stroke-width="1" opacity=".18"/>
  <text x="400" y="150" text-anchor="middle" font-family="Verdana,sans-serif" font-size="14" letter-spacing="6" fill="#C9962E">AANAND</text>
  <ellipse cx="400" cy="560" rx="86" ry="16" fill="#241419" opacity=".12"/>
  <!-- bullet: teardrop capsule -->
  <path d="M400 296 C356 296 340 352 340 420 C340 486 366 536 400 536 C434 536 460 486 460 420 C460 352 444 296 400 296 Z" fill="url(#rose)"/>
  <ellipse cx="384" cy="360" rx="10" ry="30" fill="#F7EFDF" opacity=".35"/>
  <circle cx="400" cy="300" r="10" fill="#DDB967"/>
  <text x="400" y="626" text-anchor="middle" font-family="Georgia,serif" font-size="27" font-weight="bold" letter-spacing="1" fill="#5E1F30">BINDU</text>
  <text x="400" y="652" text-anchor="middle" font-family="Verdana,sans-serif" font-size="12.5" letter-spacing="2" fill="#7A5C46">DISCREET BULLET · बिंदु</text>
  <text x="400" y="704" text-anchor="middle" font-family="Georgia,serif" font-size="15" letter-spacing="4" fill="#7A5C46">KHUL KE PUCHO</text>
</svg>
