<svg xmlns="http://www.w3.org/2000/svg" viewBox="0 0 1000 1000" role="img">
<defs>
  <radialGradient id="studio" cx=".5" cy=".42" r=".78">
    <stop offset="0" stop-color="#FFFDF8"/><stop offset=".55" stop-color="#F7EFDF"/><stop offset="1" stop-color="#E9DCC2"/>
  </radialGradient>
  <radialGradient id="spot" cx=".5" cy=".45" r=".5">
    <stop offset="0" stop-color="#FFFFFF" stop-opacity=".85"/><stop offset="1" stop-color="#FFFFFF" stop-opacity="0"/>
  </radialGradient>
  <radialGradient id="vig" cx=".5" cy=".5" r=".72">
    <stop offset=".6" stop-color="#241419" stop-opacity="0"/><stop offset="1" stop-color="#241419" stop-opacity=".13"/>
  </radialGradient>
  <linearGradient id="floor" x1="0" y1="0" x2="0" y2="1">
    <stop offset="0" stop-color="#241419" stop-opacity=".07"/><stop offset="1" stop-color="#241419" stop-opacity="0"/>
  </linearGradient>
  <filter id="soft" x="-60%" y="-60%" width="220%" height="220%"><feGaussianBlur stdDeviation="26"/></filter>
  <filter id="soft2" x="-60%" y="-60%" width="220%" height="220%"><feGaussianBlur stdDeviation="11"/></filter>
  <filter id="soft3" x="-60%" y="-60%" width="220%" height="220%"><feGaussianBlur stdDeviation="4"/></filter>
  <filter id="glowf" x="-90%" y="-90%" width="280%" height="280%"><feGaussianBlur stdDeviation="34"/></filter>
  <linearGradient id="specV" x1="0" y1="0" x2="1" y2="0">
    <stop offset="0" stop-color="#FFFFFF" stop-opacity="0"/><stop offset=".5" stop-color="#FFFFFF" stop-opacity=".55"/><stop offset="1" stop-color="#FFFFFF" stop-opacity="0"/>
  </linearGradient>

  <linearGradient id="sil" x1="0" y1="0" x2="1" y2="0">
    <stop offset="0" stop-color="#D89377"/><stop offset=".22" stop-color="#C97F5E"/><stop offset=".58" stop-color="#B4694E"/><stop offset=".88" stop-color="#7A422E"/><stop offset="1" stop-color="#A15C42"/>
  </linearGradient>
  <linearGradient id="blush" x1="0" y1="0" x2="1" y2="0">
    <stop offset="0" stop-color="#F4CDD0"/><stop offset=".3" stop-color="#E8B4B8"/><stop offset=".72" stop-color="#D99AA0"/><stop offset="1" stop-color="#B9787E"/>
  </linearGradient>
  <radialGradient id="softhead" cx=".38" cy=".3" r=".78">
    <stop offset="0" stop-color="#FBE3E0"/><stop offset=".55" stop-color="#E8B4B8"/><stop offset="1" stop-color="#C98A90"/>
  </radialGradient>
  <linearGradient id="boxo" x1="0" y1="0" x2="1" y2="1">
    <stop offset="0" stop-color="#A85636"/><stop offset=".5" stop-color="#8C4E38"/><stop offset="1" stop-color="#5A2F20"/>
  </linearGradient>
  <linearGradient id="boxi" x1="0" y1="0" x2="0" y2="1">
    <stop offset="0" stop-color="#F6E2DC"/><stop offset="1" stop-color="#E8C9C2"/>
  </linearGradient></defs>

  <rect width="1000" height="1000" fill="url(#studio)"/><ellipse cx="500" cy="440" rx="430" ry="400" fill="url(#spot)"/><circle cx="500" cy="452" r="330" fill="#B4694E" opacity=".10" filter="url(#glowf)"/><circle cx="500" cy="452" r="318" fill="none" stroke="#C9962E" stroke-width="1.6" opacity=".32"/><circle cx="500" cy="452" r="352" fill="none" stroke="#C9962E" stroke-width="1" opacity=".16"/><rect x="0" y="812" width="1000" height="188" fill="url(#floor)"/>
  <text x="500" y="92" text-anchor="middle" font-family="Verdana,Geneva,sans-serif" font-size="15" letter-spacing="7" fill="#B4694E" opacity=".9">AANAND · COUPLES STARTER BOX</text>
  <ellipse cx="500" cy="812" rx="275" ry="30" fill="#241419" opacity="0.24" filter="url(#soft)"/>
  <!-- lid, leaning behind -->
  <g transform="translate(742,392) rotate(11)">
    <rect x="-150" y="-186" width="300" height="330" rx="16" fill="url(#boxo)"/>
    <rect x="-150" y="-186" width="300" height="18" rx="9" fill="#FFFFFF" opacity=".12"/>
    <rect x="-118" y="-152" width="236" height="262" rx="10" fill="none" stroke="#E8B4B8" stroke-width="1.6" opacity=".7"/>
    <text x="0" y="-40" text-anchor="middle" font-family="Georgia,'Times New Roman',serif" font-size="34" fill="#E8B4B8">मिलन</text>
    <text x="0" y="10" text-anchor="middle" font-family="Georgia,'Times New Roman',serif" font-size="30" font-weight="bold" letter-spacing="3" fill="#F6E2DC">MILAN</text>
    <text x="0" y="44" text-anchor="middle" font-family="Verdana,Geneva,sans-serif" font-size="11.5" letter-spacing="3" fill="#E8B4B8">COUPLES KIT</text>
  </g>
  <!-- open base box -->
  <path d="M212 500 L788 500 L744 780 L256 780 Z" fill="url(#boxo)"/>
  <rect x="212" y="470" width="576" height="46" rx="10" fill="#C4704E"/>
  <path d="M240 516 L760 516 L724 756 L276 756 Z" fill="url(#boxi)"/>
  <!-- contents nested in compartments -->
  <g>
    <!-- bullet -->
    <path d="M352 566 C376 566 388 592 388 630 L388 704 a36 36 0 0 1 -72 0 L316 630 C316 592 328 566 352 566 Z" fill="url(#sil)"/>
    <path d="M330 586 C334 574 342 568 348 566 L348 726 C338 722 330 714 328 702 Z" fill="#FFFFFF" opacity=".22"/>
    <!-- ring -->
    <ellipse cx="470" cy="656" rx="62" ry="58" fill="none" stroke="url(#sil)" stroke-width="30"/>
    <ellipse cx="470" cy="612" rx="26" ry="18" fill="url(#blush)"/>
    <!-- gel bottle -->
    <rect x="546" y="596" width="70" height="126" rx="16" fill="#F7E4E5"/>
    <rect x="556" y="608" width="9" height="100" rx="4.5" fill="#FFFFFF" opacity=".7"/>
    <rect x="562" y="566" width="38" height="34" rx="10" fill="#B4694E"/>
    <rect x="556" y="636" width="50" height="52" rx="6" fill="#F7EFDF"/>
    <text x="581" y="668" text-anchor="middle" font-family="Georgia,'Times New Roman',serif" font-size="12" font-weight="bold" fill="#5E1F30">SNIGDHA</text>
    <!-- cards -->
    <g transform="translate(672,660) rotate(-8)">
      <rect x="-46" y="-64" width="92" height="128" rx="9" fill="#5E1F30"/>
      <rect x="-38" y="-56" width="76" height="112" rx="6" fill="none" stroke="#DDB967" stroke-width="1.4" opacity=".8"/>
      <text x="0" y="8" text-anchor="middle" font-family="Georgia,'Times New Roman',serif" font-size="15" fill="#DDB967">खुली</text>
      <text x="0" y="30" text-anchor="middle" font-family="Georgia,'Times New Roman',serif" font-size="15" fill="#DDB967">बात</text>
    </g>
  </g>
  <g font-family="Verdana,Geneva,sans-serif" font-size="12.5" letter-spacing="2" fill="#7A5C46" text-anchor="middle">
    <text x="500" y="882">BINDU · BANDHAN · SNIGDHA · KHULI BAAT — IN A KEEPSAKE BOX</text>
  </g>
  <text x="500" y="934" text-anchor="middle" font-family="Georgia,'Times New Roman',serif" font-size="19" letter-spacing="5" fill="#7A5C46" opacity="0.5">KHUL KE PUCHO</text>

<rect width="1000" height="1000" fill="url(#vig)"/>
</svg>
