<svg xmlns="http://www.w3.org/2000/svg" viewBox="0 0 1000 1000" role="img">
<defs>
  <radialGradient id="studio" cx=".5" cy=".42" r=".78">
    <stop offset="0" stop-color="#FFFDF8"/><stop offset=".55" stop-color="#F7EFDF"/><stop offset="1" stop-color="#E9DCC2"/>
  </radialGradient>
  <radialGradient id="spot" cx=".5" cy=".45" r=".5">
    <stop offset="0" stop-color="#FFFFFF" stop-opacity=".85"/><stop offset="1" stop-color="#FFFFFF" stop-opacity="0"/>
  </radialGradient>
  <radialGradient id="vig" cx=".5" cy=".5" r=".72">
    <stop offset=".6" stop-color="#241419" stop-opacity="0"/><stop offset="1" stop-color="#241419" stop-opacity=".13"/>
  </radialGradient>
  <linearGradient id="floor" x1="0" y1="0" x2="0" y2="1">
    <stop offset="0" stop-color="#241419" stop-opacity=".07"/><stop offset="1" stop-color="#241419" stop-opacity="0"/>
  </linearGradient>
  <filter id="soft" x="-60%" y="-60%" width="220%" height="220%"><feGaussianBlur stdDeviation="26"/></filter>
  <filter id="soft2" x="-60%" y="-60%" width="220%" height="220%"><feGaussianBlur stdDeviation="11"/></filter>
  <filter id="soft3" x="-60%" y="-60%" width="220%" height="220%"><feGaussianBlur stdDeviation="4"/></filter>
  <filter id="glowf" x="-90%" y="-90%" width="280%" height="280%"><feGaussianBlur stdDeviation="34"/></filter>
  <linearGradient id="specV" x1="0" y1="0" x2="1" y2="0">
    <stop offset="0" stop-color="#FFFFFF" stop-opacity="0"/><stop offset=".5" stop-color="#FFFFFF" stop-opacity=".55"/><stop offset="1" stop-color="#FFFFFF" stop-opacity="0"/>
  </linearGradient>

  <linearGradient id="sil" x1="0" y1="0" x2="1" y2="0">
    <stop offset="0" stop-color="#D89377"/><stop offset=".22" stop-color="#C97F5E"/><stop offset=".58" stop-color="#B4694E"/><stop offset=".88" stop-color="#7A422E"/><stop offset="1" stop-color="#A15C42"/>
  </linearGradient>
  <linearGradient id="blush" x1="0" y1="0" x2="1" y2="0">
    <stop offset="0" stop-color="#F4CDD0"/><stop offset=".3" stop-color="#E8B4B8"/><stop offset=".72" stop-color="#D99AA0"/><stop offset="1" stop-color="#B9787E"/>
  </linearGradient>
  <radialGradient id="softhead" cx=".38" cy=".3" r=".78">
    <stop offset="0" stop-color="#FBE3E0"/><stop offset=".55" stop-color="#E8B4B8"/><stop offset="1" stop-color="#C98A90"/>
  </radialGradient>
  <linearGradient id="frost" x1="0" y1="0" x2="1" y2="0">
    <stop offset="0" stop-color="#FDF3F3"/><stop offset=".22" stop-color="#F7E4E5"/><stop offset=".6" stop-color="#EFD2D5"/><stop offset=".9" stop-color="#D9B2B6"/><stop offset="1" stop-color="#F2DEE0"/>
  </linearGradient></defs>

  <rect width="1000" height="1000" fill="url(#studio)"/><ellipse cx="500" cy="440" rx="430" ry="400" fill="url(#spot)"/><circle cx="500" cy="452" r="330" fill="#E8B4B8" opacity=".10" filter="url(#glowf)"/><circle cx="500" cy="452" r="318" fill="none" stroke="#C9962E" stroke-width="1.6" opacity=".32"/><circle cx="500" cy="452" r="352" fill="none" stroke="#C9962E" stroke-width="1" opacity=".16"/><rect x="0" y="812" width="1000" height="188" fill="url(#floor)"/>
  <text x="500" y="92" text-anchor="middle" font-family="Verdana,Geneva,sans-serif" font-size="15" letter-spacing="7" fill="#B4694E" opacity=".9">AANAND · INTIMATE CARE</text>
  <ellipse cx="500" cy="826" rx="150" ry="24" fill="#241419" opacity="0.24" filter="url(#soft)"/>
  <!-- pump -->
  <rect x="452" y="150" width="96" height="30" rx="12" fill="#8C4E38"/>
  <rect x="470" y="180" width="60" height="52" rx="14" fill="#B4694E"/>
  <rect x="486" y="232" width="28" height="42" fill="#8C4E38"/>
  <rect x="440" y="266" width="120" height="34" rx="12" fill="#B4694E"/>
  <rect x="440" y="266" width="120" height="9" rx="4.5" fill="#FFFFFF" opacity=".26"/>
  <!-- bottle -->
  <rect x="376" y="296" width="248" height="470" rx="34" fill="url(#frost)"/><rect x="395.84" y="319.5" width="32.24" height="399.5" rx="16.12" fill="#FFFFFF" opacity="0.5" filter="url(#soft3)"/><rect x="591.76" y="333.6" width="12.4" height="376.0" rx="6.2" fill="#FFFFFF" opacity=".16" filter="url(#soft3)"/>
  <rect x="404" y="386" width="192" height="312" rx="14" fill="#F7EFDF"/><rect x="404" y="386" width="192" height="312" rx="14" fill="none" stroke="#C9962E" stroke-width="2" opacity=".75"/><rect x="413" y="395" width="174" height="294" rx="6" fill="none" stroke="#C9962E" stroke-width="1" opacity=".45"/>
  <g fill="none" stroke="#B4694E" stroke-width="4" stroke-linecap="round" opacity=".9">
    <path d="M500 470 C482 448 468 430 468 412 a32 32 0 0 1 64 0 C532 430 518 448 500 470 Z"/>
  </g>
  <text x="500" y="524" text-anchor="middle" font-family="Georgia,'Times New Roman',serif" font-size="21" fill="#7A5C46">स्निग्धा</text>
  <text x="500" y="572" text-anchor="middle" font-family="Georgia,'Times New Roman',serif" font-size="33" font-weight="bold" letter-spacing="1" fill="#5E1F30">SNIGDHA</text>
  <rect x="440" y="590" width="120" height="2" fill="#B4694E"/>
  <text x="500" y="620" text-anchor="middle" font-family="Verdana,Geneva,sans-serif" font-size="12" letter-spacing="2" fill="#7A5C46">WATER-BASED GEL</text>
  <text x="500" y="646" text-anchor="middle" font-family="Verdana,Geneva,sans-serif" font-size="12" fill="#2F5D46">pH-balanced · condom-safe</text>
  <text x="500" y="672" text-anchor="middle" font-family="Verdana,Geneva,sans-serif" font-size="12" fill="#7A5C46">100 ml</text>
  <g font-family="Verdana,Geneva,sans-serif" font-size="12" letter-spacing="2" fill="#7A5C46" text-anchor="middle">
    <text x="500" y="884">NO PARABENS · NO GLYCERIN · DERMATOLOGICALLY TESTED</text>
  </g>
  <text x="500" y="936" text-anchor="middle" font-family="Georgia,'Times New Roman',serif" font-size="19" letter-spacing="5" fill="#7A5C46" opacity="0.5">KHUL KE PUCHO</text>

<rect width="1000" height="1000" fill="url(#vig)"/>
</svg>
