<svg xmlns="http://www.w3.org/2000/svg" viewBox="0 0 1000 1000" role="img">
<defs>
  <radialGradient id="studio" cx=".5" cy=".42" r=".78">
    <stop offset="0" stop-color="#FFFDF8"/><stop offset=".55" stop-color="#F7EFDF"/><stop offset="1" stop-color="#E9DCC2"/>
  </radialGradient>
  <radialGradient id="spot" cx=".5" cy=".45" r=".5">
    <stop offset="0" stop-color="#FFFFFF" stop-opacity=".85"/><stop offset="1" stop-color="#FFFFFF" stop-opacity="0"/>
  </radialGradient>
  <radialGradient id="vig" cx=".5" cy=".5" r=".72">
    <stop offset=".6" stop-color="#241419" stop-opacity="0"/><stop offset="1" stop-color="#241419" stop-opacity=".13"/>
  </radialGradient>
  <linearGradient id="floor" x1="0" y1="0" x2="0" y2="1">
    <stop offset="0" stop-color="#241419" stop-opacity=".07"/><stop offset="1" stop-color="#241419" stop-opacity="0"/>
  </linearGradient>
  <filter id="soft" x="-60%" y="-60%" width="220%" height="220%"><feGaussianBlur stdDeviation="26"/></filter>
  <filter id="soft2" x="-60%" y="-60%" width="220%" height="220%"><feGaussianBlur stdDeviation="11"/></filter>
  <filter id="soft3" x="-60%" y="-60%" width="220%" height="220%"><feGaussianBlur stdDeviation="4"/></filter>
  <filter id="glowf" x="-90%" y="-90%" width="280%" height="280%"><feGaussianBlur stdDeviation="34"/></filter>
  <linearGradient id="specV" x1="0" y1="0" x2="1" y2="0">
    <stop offset="0" stop-color="#FFFFFF" stop-opacity="0"/><stop offset=".5" stop-color="#FFFFFF" stop-opacity=".55"/><stop offset="1" stop-color="#FFFFFF" stop-opacity="0"/>
  </linearGradient>
</defs>

  <rect width="1000" height="1000" fill="url(#studio)"/><ellipse cx="500" cy="440" rx="430" ry="400" fill="url(#spot)"/><circle cx="500" cy="452" r="330" fill="#B4694E" opacity=".10" filter="url(#glowf)"/><rect x="0" y="812" width="1000" height="188" fill="url(#floor)"/>
  
  <ellipse cx="500" cy="740" rx="170" ry="24" fill="#241419" opacity="0.18" filter="url(#soft)"/>
  <rect x="336" y="352" width="328" height="188" rx="34" fill="none" stroke="#B4694E" stroke-width="12"/>
  <rect x="672" y="418" width="26" height="56" rx="10" fill="#B4694E"/>
  <rect x="362" y="378" width="180" height="136" rx="18" fill="#2F5D46"/>
  <path d="M534 372 L470 462 L516 462 L482 546 L560 442 L512 442 Z" fill="#DDB967" stroke="#F7EFDF" stroke-width="4" stroke-linejoin="round"/>
  <text x="500" y="646" text-anchor="middle" font-family="Verdana,Geneva,sans-serif" font-size="24" fill="#7A5C46">USB-C · up to 2 hours</text>
  <text x="500" y="906" text-anchor="middle" font-family="Verdana,Geneva,sans-serif" font-size="30" letter-spacing="4" fill="#7A5C46">RECHARGEABLE</text>

<rect width="1000" height="1000" fill="url(#vig)"/>
</svg>
